<svg width="62" height="74" viewBox="0 0 62 74" fill="none" xmlns="http://www.w3.org/2000/svg">
<path d="M11.7188 3.104L50.6799 70.5868" stroke="white" stroke-width="6" stroke-linecap="round" stroke-linejoin="round"/>
<path d="M34.1393 6.51892L11.1338 19.8011C8.28651 21.4451 6.20883 24.1527 5.35788 27.3285C4.50693 30.5043 4.95241 33.8881 6.59632 36.7354C8.24023 39.5827 10.9479 41.6604 14.1237 42.5114C17.2995 43.3623 20.6833 42.9168 23.5306 41.2729L38.8676 32.4181C41.7149 30.7742 45.0987 30.3287 48.2745 31.1797C51.4503 32.0306 54.1579 34.1083 55.8018 36.9556C57.4458 39.803 57.8912 43.1867 57.0403 46.3625C56.1893 49.5383 54.1117 52.246 51.2643 53.8899L25.1914 68.9431" stroke="white" stroke-width="6" stroke-linecap="round" stroke-linejoin="round"/>
</svg>
