<svg width="25" height="24" viewBox="0 0 25 24" fill="none" xmlns="http://www.w3.org/2000/svg">
<g clip-path="url(#clip0_142_341)">
<path d="M5.50491 9.00293C5.77012 9.00293 6.02448 9.10829 6.21201 9.29582C6.39955 9.48336 6.50491 9.73771 6.50491 10.0029C8.07605 10.0006 9.60189 10.5292 10.8349 11.5029H13.0049C14.3369 11.5029 15.5349 12.0829 16.3589 13.0029H19.5049C20.4502 13.0027 21.3761 13.2704 22.1754 13.775C22.9747 14.2796 23.6146 15.0004 24.0209 15.8539C21.6559 18.9749 17.8269 21.0029 13.5049 21.0029C10.7149 21.0029 8.35491 20.3999 6.44391 19.3449C6.37395 19.538 6.24615 19.7048 6.07792 19.8225C5.9097 19.9403 5.70925 20.0033 5.50391 20.0029H2.50391C2.23869 20.0029 1.98434 19.8976 1.7968 19.71C1.60926 19.5225 1.50391 19.2681 1.50391 19.0029V10.0029C1.50391 9.73771 1.60926 9.48336 1.7968 9.29582C1.98434 9.10829 2.23869 9.00293 2.50391 9.00293H5.50391H5.50491ZM6.50491 12.0029V17.0249L6.54991 17.0569C8.34391 18.3169 10.6829 19.0029 13.5049 19.0029C16.5089 19.0029 19.3029 17.8469 21.3399 15.8729L21.4729 15.7399L21.3529 15.6399C20.8807 15.2701 20.3083 15.0506 19.7099 15.0099L19.5049 15.0029H17.3929C17.4659 15.3249 17.5049 15.6589 17.5049 16.0029V17.0029H8.50491V15.0029L15.2949 15.0019L15.2609 14.9229C15.0691 14.5227 14.7743 14.1806 14.4066 13.932C14.039 13.6833 13.6118 13.5369 13.1689 13.5079L13.0049 13.5029H10.0749C9.60999 13.0274 9.05462 12.6497 8.44151 12.3921C7.8284 12.1345 7.16994 12.0022 6.50491 12.0029ZM4.50491 11.0029H3.50491V18.0029H4.50491V11.0029ZM18.5049 5.00293C18.8989 5.00293 19.289 5.08053 19.653 5.23129C20.0169 5.38206 20.3477 5.60303 20.6262 5.88161C20.9048 6.16018 21.1258 6.4909 21.2765 6.85488C21.4273 7.21886 21.5049 7.60896 21.5049 8.00293C21.5049 8.3969 21.4273 8.787 21.2765 9.15098C21.1258 9.51496 20.9048 9.84567 20.6262 10.1242C20.3477 10.4028 20.0169 10.6238 19.653 10.7746C19.289 10.9253 18.8989 11.0029 18.5049 11.0029C17.7093 11.0029 16.9462 10.6869 16.3836 10.1242C15.821 9.56164 15.5049 8.79858 15.5049 8.00293C15.5049 7.20728 15.821 6.44422 16.3836 5.88161C16.9462 5.319 17.7093 5.00293 18.5049 5.00293ZM18.5049 7.00293C18.2397 7.00293 17.9853 7.10829 17.7978 7.29582C17.6103 7.48336 17.5049 7.73771 17.5049 8.00293C17.5049 8.26815 17.6103 8.5225 17.7978 8.71004C17.9853 8.89757 18.2397 9.00293 18.5049 9.00293C18.7701 9.00293 19.0245 8.89757 19.212 8.71004C19.3995 8.5225 19.5049 8.26815 19.5049 8.00293C19.5049 7.73771 19.3995 7.48336 19.212 7.29582C19.0245 7.10829 18.7701 7.00293 18.5049 7.00293ZM11.5049 2.00293C11.8989 2.00293 12.289 2.08053 12.653 2.23129C13.0169 2.38206 13.3477 2.60303 13.6262 2.88161C13.9048 3.16018 14.1258 3.4909 14.2765 3.85488C14.4273 4.21886 14.5049 4.60896 14.5049 5.00293C14.5049 5.3969 14.4273 5.787 14.2765 6.15098C14.1258 6.51496 13.9048 6.84567 13.6262 7.12425C13.3477 7.40283 13.0169 7.6238 12.653 7.77457C12.289 7.92533 11.8989 8.00293 11.5049 8.00293C10.7093 8.00293 9.94619 7.68686 9.38359 7.12425C8.82098 6.56164 8.50491 5.79858 8.50491 5.00293C8.50491 4.20728 8.82098 3.44422 9.38359 2.88161C9.94619 2.319 10.7093 2.00293 11.5049 2.00293ZM11.5049 4.00293C11.2397 4.00293 10.9853 4.10829 10.7978 4.29582C10.6103 4.48336 10.5049 4.73771 10.5049 5.00293C10.5049 5.26815 10.6103 5.5225 10.7978 5.71004C10.9853 5.89757 11.2397 6.00293 11.5049 6.00293C11.7701 6.00293 12.0245 5.89757 12.212 5.71004C12.3995 5.5225 12.5049 5.26815 12.5049 5.00293C12.5049 4.73771 12.3995 4.48336 12.212 4.29582C12.0245 4.10829 11.7701 4.00293 11.5049 4.00293Z" fill="black"/>
</g>
<defs>
<clipPath id="clip0_142_341">
<rect width="24" height="24" fill="white" transform="translate(0.5)"/>
</clipPath>
</defs>
</svg>
