<svg width="51" height="50" viewBox="0 0 51 50" fill="none" xmlns="http://www.w3.org/2000/svg">
<path d="M45.0117 28.1719C44.5235 27.796 43.9549 27.5381 43.3504 27.4185C42.7459 27.2989 42.122 27.3208 41.5273 27.4824L31.8965 29.6875C32.3123 28.9764 32.5314 28.1675 32.5312 27.3438C32.5312 26.1005 32.0374 24.9083 31.1583 24.0292C30.2792 23.1501 29.087 22.6562 27.8438 22.6562H18.0664C17.3479 22.6542 16.6362 22.7946 15.9723 23.0696C15.3085 23.3445 14.7059 23.7484 14.1992 24.2578L9.55078 28.9062H3.625C3.0034 28.9062 2.40726 29.1532 1.96772 29.5927C1.52818 30.0323 1.28125 30.6284 1.28125 31.25V39.0625C1.28125 39.6841 1.52818 40.2802 1.96772 40.7198C2.40726 41.1593 3.0034 41.4062 3.625 41.4062H23.9375C24.0033 41.4067 24.069 41.3988 24.1328 41.3828L36.6328 38.2578C36.6727 38.2474 36.7119 38.2344 36.75 38.2188L44.332 34.9883L44.375 34.9687C44.9859 34.6634 45.509 34.2076 45.895 33.6442C46.2811 33.0808 46.5174 32.4285 46.5817 31.7486C46.6459 31.0686 46.5361 30.3835 46.2625 29.7578C45.9888 29.1321 45.5604 28.5863 45.0176 28.1719H45.0117ZM2.84375 39.0625V31.25C2.84375 31.0428 2.92606 30.8441 3.07257 30.6976C3.21909 30.5511 3.4178 30.4688 3.625 30.4688H9.09375V39.8438H3.625C3.4178 39.8438 3.21909 39.7614 3.07257 39.6149C2.92606 39.4684 2.84375 39.2697 2.84375 39.0625ZM43.6895 33.5605L36.1875 36.7578L23.8418 39.8438H10.6562V30.0117L15.3047 25.3633C15.6664 24.9993 16.0968 24.7107 16.5709 24.5143C17.0449 24.3178 17.5532 24.2174 18.0664 24.2188H27.8438C28.6726 24.2188 29.4674 24.548 30.0535 25.134C30.6395 25.7201 30.9688 26.5149 30.9688 27.3438C30.9688 28.1726 30.6395 28.9674 30.0535 29.5535C29.4674 30.1395 28.6726 30.4688 27.8438 30.4688H22.375C22.1678 30.4688 21.9691 30.5511 21.8226 30.6976C21.6761 30.8441 21.5938 31.0428 21.5938 31.25C21.5938 31.4572 21.6761 31.6559 21.8226 31.8024C21.9691 31.9489 22.1678 32.0312 22.375 32.0312H28.625C28.6841 32.0315 28.7431 32.025 28.8008 32.0117L41.8867 29.002H41.918C42.5043 28.8465 43.1275 28.9131 43.6678 29.1889C44.2081 29.4648 44.6274 29.9305 44.8453 30.4966C45.0633 31.0627 45.0644 31.6894 44.8486 32.2564C44.6327 32.8233 44.2151 33.2905 43.6758 33.5684L43.6895 33.5605ZM32.5312 17.9688C33.1077 17.9699 33.6816 17.8911 34.2363 17.7344C34.5022 18.9585 35.1298 20.0745 36.0376 20.9376C36.9455 21.8008 38.0918 22.3711 39.3278 22.5748C40.5639 22.7785 41.8326 22.606 42.9694 22.0798C44.1062 21.5536 45.0586 20.6979 45.7032 19.6238C46.3477 18.5496 46.6546 17.3066 46.584 16.0559C46.5135 14.8052 46.0687 13.6046 45.3074 12.6097C44.5461 11.6149 43.5035 10.8718 42.3147 10.4768C41.1259 10.0818 39.8459 10.0531 38.6406 10.3945C38.3908 9.24199 37.8199 8.18366 36.994 7.34182C36.1681 6.49998 35.1209 5.90898 33.9734 5.6371C32.8258 5.36523 31.6248 5.42357 30.509 5.80539C29.3932 6.18721 28.4082 6.87693 27.6678 7.79486C26.9274 8.71278 26.4618 9.82146 26.3248 10.9928C26.1878 12.1641 26.3851 13.3503 26.8937 14.4143C27.4023 15.4783 28.2016 16.3767 29.1992 17.0056C30.1968 17.6346 31.3519 17.9685 32.5312 17.9688ZM45.0312 16.4063C45.0312 17.3334 44.7563 18.2396 44.2413 19.0105C43.7262 19.7813 42.9941 20.3821 42.1376 20.7369C41.2811 21.0917 40.3386 21.1845 39.4293 21.0037C38.52 20.8228 37.6847 20.3764 37.0292 19.7208C36.3736 19.0653 35.9272 18.23 35.7463 17.3207C35.5654 16.4115 35.6583 15.469 36.0131 14.6124C36.3679 13.7559 36.9687 13.0238 37.7395 12.5087C38.5104 11.9937 39.4166 11.7188 40.3438 11.7188C41.587 11.7188 42.7792 12.2126 43.6583 13.0917C44.5374 13.9708 45.0312 15.163 45.0312 16.4063ZM32.5312 7.03125C33.6547 7.03113 34.7409 7.43453 35.5919 8.16798C36.443 8.90144 37.0023 9.91615 37.168 11.0273C36.2705 11.5555 35.5191 12.2995 34.9822 13.1918C34.4454 14.0841 34.1399 15.0964 34.0938 16.1367C33.45 16.365 32.7642 16.4498 32.0842 16.3853C31.4042 16.3207 30.7466 16.1084 30.1573 15.7631C29.568 15.4177 29.0613 14.9478 28.6726 14.3862C28.2839 13.8245 28.0227 13.1847 27.9072 12.5115C27.7917 11.8384 27.8247 11.1481 28.0039 10.489C28.183 9.82988 28.5041 9.21791 28.9446 8.69589C29.385 8.17387 29.9343 7.75441 30.5538 7.46687C31.1733 7.17933 31.8482 7.03066 32.5312 7.03125Z" fill="black"/>
</svg>
