<svg width="23" height="16" viewBox="0 0 23 16" fill="none" xmlns="http://www.w3.org/2000/svg">
<g clip-path="url(#clip0_142_349)">
<path d="M6.79266 1.49982C6.98018 1.31235 7.23449 1.20703 7.49966 1.20703C7.76482 1.20703 8.01913 1.31235 8.20665 1.49982L10.4997 3.79282V2.49982C10.4997 2.36721 10.5523 2.24003 10.6461 2.14626C10.7399 2.0525 10.867 1.99982 10.9997 1.99982H11.9997C12.1323 1.99982 12.2594 2.0525 12.3532 2.14626C12.447 2.24003 12.4997 2.36721 12.4997 2.49982V5.79282L14.8537 8.14582C14.9001 8.19231 14.937 8.24749 14.9622 8.30823C14.9873 8.36897 15.0003 8.43407 15.0003 8.49982C15.0003 8.56556 14.9873 8.63066 14.9622 8.6914C14.937 8.75214 14.9001 8.80733 14.8537 8.85382C14.8072 8.90031 14.752 8.93718 14.6912 8.96234C14.6305 8.9875 14.5654 9.00045 14.4997 9.00045C14.4339 9.00045 14.3688 8.9875 14.3081 8.96234C14.2473 8.93718 14.1921 8.90031 14.1457 8.85382L7.49966 2.20682L2.49966 7.20682V13.4998C2.49966 13.6324 2.55233 13.7596 2.6461 13.8534C2.73987 13.9471 2.86705 13.9998 2.99966 13.9998H6.99966C7.13226 13.9998 7.25944 14.0525 7.35321 14.1463C7.44698 14.24 7.49966 14.3672 7.49966 14.4998C7.49966 14.6324 7.44698 14.7596 7.35321 14.8534C7.25944 14.9471 7.13226 14.9998 6.99966 14.9998H2.99966C2.60183 14.9998 2.2203 14.8418 1.93899 14.5605C1.65769 14.2792 1.49966 13.8976 1.49966 13.4998V8.20682L0.853655 8.85382C0.807167 8.90031 0.751978 8.93718 0.691238 8.96234C0.630499 8.9875 0.565399 9.00045 0.499655 9.00045C0.433911 9.00045 0.368811 8.9875 0.308072 8.96234C0.247332 8.93718 0.192143 8.90031 0.145655 8.85382C0.0991671 8.80733 0.0622908 8.75214 0.0371318 8.6914C0.0119727 8.63066 -0.000976562 8.56556 -0.000976562 8.49982C-0.000976562 8.43407 0.0119727 8.36897 0.0371318 8.30823C0.0622908 8.24749 0.0991671 8.19231 0.145655 8.14582L6.79266 1.49982Z" fill="black"/>
<path d="M12 16C12.9283 16 13.8185 15.6313 14.4749 14.9749C15.1313 14.3185 15.5 13.4283 15.5 12.5C15.5 11.5717 15.1313 10.6815 14.4749 10.0251C13.8185 9.36875 12.9283 9 12 9C11.0717 9 10.1815 9.36875 9.52513 10.0251C8.86875 10.6815 8.5 11.5717 8.5 12.5C8.5 13.4283 8.86875 14.3185 9.52513 14.9749C10.1815 15.6313 11.0717 16 12 16ZM13.679 11.507L12.344 13.733C12.2853 13.8308 12.2051 13.9139 12.1095 13.9761C12.0139 14.0382 11.9053 14.0777 11.7922 14.0916C11.679 14.1055 11.5641 14.0934 11.4563 14.0562C11.3485 14.019 11.2506 13.9577 11.17 13.877L10.396 13.104C10.3022 13.0101 10.2496 12.8828 10.2497 12.7501C10.2498 12.6175 10.3026 12.4903 10.3965 12.3965C10.4904 12.3027 10.6177 12.2501 10.7504 12.2502C10.883 12.2503 11.0102 12.3031 11.104 12.397L11.651 12.944L12.821 10.993C12.8547 10.9367 12.8993 10.8875 12.952 10.8484C13.0047 10.8093 13.0647 10.7809 13.1284 10.7649C13.1921 10.749 13.2583 10.7457 13.3233 10.7553C13.3882 10.7649 13.4507 10.7873 13.507 10.821C13.5633 10.8547 13.6125 10.8993 13.6516 10.952C13.6907 11.0047 13.7191 11.0647 13.7351 11.1284C13.751 11.1921 13.7543 11.2583 13.7447 11.3233C13.7351 11.3882 13.7127 11.4507 13.679 11.507Z" fill="black"/>
</g>
<defs>
<clipPath id="clip0_142_349">
<rect width="23" height="16" fill="white"/>
</clipPath>
</defs>
</svg>
