<svg width="51" height="50" viewBox="0 0 51 50" fill="none" xmlns="http://www.w3.org/2000/svg">
<path d="M24.1784 9.84186C24.625 9.39098 25.2306 9.1377 25.8621 9.1377C26.4935 9.1377 27.0991 9.39098 27.5457 9.84186L33.0063 15.3567V12.2469C33.0063 11.928 33.1317 11.6221 33.355 11.3966C33.5783 11.1711 33.8812 11.0444 34.197 11.0444H36.5784C36.8942 11.0444 37.1971 11.1711 37.4204 11.3966C37.6437 11.6221 37.7691 11.928 37.7691 12.2469V20.1668L43.3749 25.8259C43.4857 25.9377 43.5735 26.0704 43.6334 26.2165C43.6933 26.3626 43.7241 26.5191 43.7241 26.6772C43.7241 26.8354 43.6933 26.9919 43.6334 27.138C43.5735 27.2841 43.4857 27.4168 43.3749 27.5286C43.2642 27.6404 43.1328 27.7291 42.9882 27.7896C42.8435 27.8502 42.6885 27.8813 42.5319 27.8813C42.3754 27.8813 42.2203 27.8502 42.0757 27.7896C41.931 27.7291 41.7996 27.6404 41.6889 27.5286L25.8621 11.5422L13.955 23.5675V38.7025C13.955 39.0215 14.0805 39.3273 14.3038 39.5528C14.5271 39.7784 14.8299 39.9051 15.1457 39.9051H24.6714C24.9872 39.9051 25.29 40.0317 25.5133 40.2573C25.7366 40.4828 25.8621 40.7887 25.8621 41.1076C25.8621 41.4265 25.7366 41.7324 25.5133 41.9579C25.29 42.1834 24.9872 42.3101 24.6714 42.3101H15.1457C14.1983 42.3101 13.2898 41.93 12.6199 41.2535C11.95 40.5769 11.5736 39.6593 11.5736 38.7025V25.9726L10.0352 27.5286C9.92452 27.6404 9.79309 27.7291 9.64845 27.7896C9.5038 27.8502 9.34877 27.8813 9.19221 27.8813C9.03565 27.8813 8.88062 27.8502 8.73597 27.7896C8.59132 27.7291 8.4599 27.6404 8.34919 27.5286C8.23848 27.4168 8.15067 27.2841 8.09075 27.138C8.03084 26.9919 8 26.8354 8 26.6772C8 26.5191 8.03084 26.3626 8.09075 26.2165C8.15067 26.0704 8.23848 25.9377 8.34919 25.8259L24.1784 9.84186Z" fill="black"/>
<path d="M36.7072 44.8616C38.9066 44.8616 41.016 43.9879 42.5713 42.4326C44.1265 40.8773 45.0003 38.768 45.0003 36.5685C45.0003 34.369 44.1265 32.2596 42.5713 30.7044C41.016 29.1491 38.9066 28.2754 36.7072 28.2754C34.5077 28.2754 32.3983 29.1491 30.8431 30.7044C29.2878 32.2596 28.4141 34.369 28.4141 36.5685C28.4141 38.768 29.2878 40.8773 30.8431 42.4326C32.3983 43.9879 34.5077 44.8616 36.7072 44.8616ZM40.6855 34.2156L37.5223 39.49C37.3833 39.7218 37.1932 39.9187 36.9667 40.066C36.7401 40.2132 36.4829 40.3068 36.2147 40.3397C35.9465 40.3726 35.6743 40.3439 35.4188 40.2558C35.1634 40.1677 34.9314 40.0225 34.7405 39.8312L32.9066 37.9996C32.6844 37.7772 32.5597 37.4756 32.56 37.1612C32.5602 36.8468 32.6853 36.5454 32.9077 36.3233C33.1302 36.1011 33.4318 35.9764 33.7462 35.9767C34.0606 35.9769 34.362 36.102 34.5841 36.3244L35.8802 37.6205L38.6525 32.9977C38.7325 32.8642 38.8379 32.7478 38.9629 32.6551C39.0879 32.5624 39.2299 32.4952 39.3808 32.4573C39.5317 32.4195 39.6887 32.4117 39.8426 32.4345C39.9965 32.4573 40.1445 32.5102 40.2779 32.5902C40.4114 32.6701 40.5279 32.7756 40.6206 32.9006C40.7133 33.0256 40.7805 33.1676 40.8184 33.3185C40.8562 33.4694 40.8639 33.6263 40.8411 33.7803C40.8183 33.9342 40.7655 34.0821 40.6855 34.2156Z" fill="black"/>
</svg>
