<svg width="50" height="51" viewBox="0 0 50 51" fill="none" xmlns="http://www.w3.org/2000/svg">
<path d="M43.75 33.8333V17.1666C43.7492 16.4359 43.5564 15.7183 43.1907 15.0857C42.825 14.4531 42.2995 13.9278 41.6667 13.5625L27.0833 5.22913C26.4499 4.86342 25.7314 4.6709 25 4.6709C24.2686 4.6709 23.5501 4.86342 22.9167 5.22913L8.33333 13.5625C7.70055 13.9278 7.17496 14.4531 6.80929 15.0857C6.44363 15.7183 6.25075 16.4359 6.25 17.1666V33.8333C6.25075 34.564 6.44363 35.2816 6.80929 35.9142C7.17496 36.5468 7.70055 37.0721 8.33333 37.4375L22.9167 45.7708C23.5501 46.1365 24.2686 46.329 25 46.329C25.7314 46.329 26.4499 46.1365 27.0833 45.7708L41.6667 37.4375C42.2995 37.0721 42.825 36.5468 43.1907 35.9142C43.5564 35.2816 43.7492 34.564 43.75 33.8333Z" stroke="#4E596F" stroke-width="2" stroke-linecap="round" stroke-linejoin="round"/>
<path d="M6.8125 15L25 25.5208L43.1875 15" stroke="#4E596F" stroke-width="2" stroke-linecap="round" stroke-linejoin="round"/>
<path d="M25 46.5V25.5" stroke="#4E596F" stroke-width="2" stroke-linecap="round" stroke-linejoin="round"/>
</svg>
