<svg width="50" height="50" viewBox="0 0 50 50" fill="none" xmlns="http://www.w3.org/2000/svg">
<path d="M6.25 37.5V25C6.25 20.0272 8.22544 15.2581 11.7417 11.7417C15.2581 8.22544 20.0272 6.25 25 6.25C29.9728 6.25 34.7419 8.22544 38.2582 11.7417C41.7746 15.2581 43.75 20.0272 43.75 25V37.5" stroke="#4E596F" stroke-width="2" stroke-linecap="round" stroke-linejoin="round"/>
<path d="M43.75 39.5834C43.75 40.6885 43.311 41.7483 42.5296 42.5297C41.7482 43.3111 40.6884 43.7501 39.5833 43.7501H37.5C36.3949 43.7501 35.3351 43.3111 34.5537 42.5297C33.7723 41.7483 33.3333 40.6885 33.3333 39.5834V33.3334C33.3333 32.2283 33.7723 31.1685 34.5537 30.3871C35.3351 29.6057 36.3949 29.1667 37.5 29.1667H43.75V39.5834ZM6.25 39.5834C6.25 40.6885 6.68899 41.7483 7.47039 42.5297C8.25179 43.3111 9.3116 43.7501 10.4167 43.7501H12.5C13.6051 43.7501 14.6649 43.3111 15.4463 42.5297C16.2277 41.7483 16.6667 40.6885 16.6667 39.5834V33.3334C16.6667 32.2283 16.2277 31.1685 15.4463 30.3871C14.6649 29.6057 13.6051 29.1667 12.5 29.1667H6.25V39.5834Z" stroke="#4E596F" stroke-width="2" stroke-linecap="round" stroke-linejoin="round"/>
</svg>
