<svg width="50" height="50" viewBox="0 0 50 50" fill="none" xmlns="http://www.w3.org/2000/svg">
<path d="M30.6248 13.1251C30.2431 13.5145 30.0293 14.0381 30.0293 14.5834C30.0293 15.1288 30.2431 15.6523 30.6248 16.0418L33.9582 19.3751C34.3476 19.7568 34.8712 19.9706 35.4165 19.9706C35.9618 19.9706 36.4854 19.7568 36.8748 19.3751L44.729 11.5209C45.7766 13.8359 46.0937 16.4152 45.6383 18.915C45.1828 21.4148 43.9763 23.7164 42.1796 25.5132C40.3828 27.3099 38.0812 28.5164 35.5814 28.9719C33.0816 29.4274 30.5023 29.1102 28.1873 28.0626L13.7915 42.4584C12.9627 43.2872 11.8386 43.7529 10.6665 43.7529C9.49439 43.7529 8.37029 43.2872 7.54149 42.4584C6.71269 41.6296 6.24707 40.5055 6.24707 39.3334C6.24707 38.1613 6.71269 37.0372 7.54149 36.2084L21.9373 21.8126C20.8897 19.4976 20.5726 16.9184 21.028 14.4185C21.4835 11.9187 22.69 9.61709 24.4867 7.82035C26.2835 6.02362 28.5851 4.81712 31.0849 4.36165C33.5848 3.90617 36.164 4.22336 38.479 5.27093L30.6457 13.1043L30.6248 13.1251Z" stroke="#4E596F" stroke-width="2" stroke-linecap="round" stroke-linejoin="round"/>
</svg>
