<svg width="87" height="57" viewBox="0 0 87 57" fill="none" xmlns="http://www.w3.org/2000/svg">
<path d="M55.9245 35.3906L49.5965 30.8464H43.4473L49.7753 35.3906H55.9245Z" fill="white"/>
<path d="M59.8089 42.5947H65.9578L59.6238 38.0471H53.4746L59.8089 42.5947Z" fill="white"/>
<path d="M69.8398 49.7985H75.9926L69.6578 45.251H63.5059L69.8398 49.7985Z" fill="white"/>
<path d="M79.6854 52.4521H73.5366L79.8674 56.9993H86.0198L79.6854 52.4521Z" fill="white"/>
<path d="M17.0171 23.0966L18.2684 22.102V45.6071L17.0171 46.5053V23.0966ZM5.76997 33.5368L2.14661 36.4176V32.0104L5.76997 29.276V33.5368ZM19.7745 44.5251V20.905L37.9252 6.47698V17.1593H36.7466V19.7483H38.1208V21.2371C37.0676 21.4562 36.2738 22.3912 36.2738 23.5087C36.2738 24.7872 37.3145 25.8284 38.5935 25.8284C39.8725 25.8284 40.9134 24.7872 40.9134 23.5087H39.9678C39.9678 24.2664 39.3512 24.8829 38.5935 24.8829C37.8358 24.8829 37.2193 24.2664 37.2193 23.5087C37.2193 22.7504 37.8358 22.1344 38.5935 22.1344H39.0662V19.7483H40.4404V17.1593H39.2618V5.41492L42.0068 3.23273L41.9786 0L19.7745 17.6493V12.7453L18.2684 13.8826V18.8473L17.0171 19.8414V14.8281L13.3707 17.5792V22.7394L10.9951 24.6283V19.3723L0 27.6701V41.044L10.9951 32.3022V27.8835L13.3707 25.9947V49.1232L2.4018 57H9.84671L38.8246 36.1912L67.803 57H75.2476L38.8246 30.8453L19.7745 44.5251Z" fill="white"/>
<path d="M34.2017 49.7495H38.007V44.6521H34.2017V49.7495Z" fill="white"/>
<path d="M39.6421 49.7495H43.4476V44.6521H39.6421V49.7495Z" fill="white"/>
<path d="M34.2017 56.8694H38.007V51.7716H34.2017V56.8694Z" fill="white"/>
<path d="M39.6421 56.8694H43.4476V51.7716H39.6421V56.8694Z" fill="white"/>
<path d="M3.95752 41.0441H10.9946V35.4495L3.95752 41.0441Z" fill="white"/>
</svg>
